<svg width="111" height="32" viewBox="0 0 111 32" fill="none" xmlns="http://www.w3.org/2000/svg">
<path fill-rule="evenodd" clip-rule="evenodd" d="M1.93944 0.908104C0.407801 1.45678 0.0673411 3.1817 1.24431 4.42899C1.77327 4.98942 1.77994 5.01204 1.63189 5.7395C1.56418 6.07141 1.48588 6.47349 1.45775 6.63299C1.30709 7.48791 1.16441 8.39213 1.08249 9.01099C1.03203 9.39379 0.966775 9.87664 0.937775 10.084C0.63806 12.2216 0.522351 15.9374 0.672426 18.61C0.805391 20.9776 0.94169 22.2483 1.28824 24.352C1.35393 24.7507 1.43049 25.2205 1.45818 25.396C1.48588 25.5714 1.56331 25.9629 1.63015 26.266C1.78211 26.9558 1.77472 26.9829 1.28259 27.5227C0.695336 28.1669 0.561066 28.4738 0.563821 29.166C0.571216 31.0311 2.64674 31.8626 4.08427 30.5761C4.69356 30.0308 4.68501 30.0329 5.57604 30.203C10.0068 31.0485 15.3573 31.0901 19.786 30.3135C21.1238 30.0789 21.1532 30.0751 21.3277 30.1189C21.41 30.1397 21.6536 30.3221 21.869 30.5242C23.3287 31.8952 25.4277 31.0793 25.438 29.137C25.4416 28.4419 25.3279 28.1845 24.7333 27.5423C24.2429 27.0126 24.2267 26.9571 24.3696 26.3063C24.4342 26.013 24.5127 25.6033 24.5444 25.396C24.576 25.1886 24.6408 24.8102 24.6885 24.555C24.7733 24.0998 24.8132 23.8364 24.9817 22.612C25.4516 19.1961 25.5282 14.7066 25.1773 11.128C25.0194 9.51791 24.5995 6.67359 24.4237 6.02399C24.3936 5.91234 24.3521 5.62104 24.3315 5.37686L24.2942 4.93258L24.7117 4.49163C26.1605 2.96087 25.3848 0.827339 23.382 0.835169C22.7101 0.837779 22.4677 0.944644 21.8229 1.52276C21.3169 1.97646 21.3111 1.97733 20.2009 1.76679C17.085 1.17563 15.3535 1.09689 15.1529 1.53711C14.8959 2.10116 15.2143 2.3394 16.3382 2.42408C16.7831 2.45757 17.3428 2.5105 17.582 2.54167C18.8586 2.7077 19.3494 2.78121 19.902 2.8888C21.468 3.19388 21.8223 3.1208 22.6756 2.31663C23.3719 1.66051 24.3108 1.98676 24.3099 2.8846C24.3096 3.14168 24.1611 3.39427 23.7812 3.78432C23.1081 4.4751 23.0192 4.92779 23.2918 6.27832C24.2623 11.0872 24.4968 17.022 23.9064 21.829C23.7329 23.2398 23.4963 24.7286 23.2701 25.831C23.014 27.079 23.112 27.5126 23.8252 28.289C24.4453 28.9642 24.4877 29.4878 23.9532 29.8682C23.5234 30.1743 23.1216 30.0956 22.5647 29.5962C21.7791 28.8918 21.396 28.8248 19.844 29.1208C17.1351 29.6372 13.5647 29.833 10.419 29.6374C8.89871 29.5428 7.37505 29.3574 6.18504 29.1221C4.67936 28.8244 4.162 28.9082 3.47644 29.5614C2.79697 30.2087 2.13229 30.2114 1.8043 29.5685C1.58013 29.1292 1.65698 28.8596 2.16883 28.29C2.91369 27.4611 2.98764 27.1038 2.70866 25.6818C2.49246 24.5804 2.30324 23.4395 2.21392 22.699C2.18304 22.4438 2.12939 22.0262 2.09444 21.771C1.4866 17.3227 1.73339 11.3237 2.73607 6.16899C2.9788 4.92112 2.88759 4.48177 2.24872 3.82115C1.54141 3.08992 1.50661 2.4509 2.15433 2.08681C2.60035 1.8361 2.91616 1.92455 3.49065 2.4612C4.12792 3.05642 4.77448 3.18286 5.92404 2.93723C6.77823 2.75468 7.47974 2.64506 8.47604 2.53819C9.15913 2.46497 10.2173 2.37202 10.3813 2.37101C10.5894 2.36956 10.912 2.01634 10.912 1.78999C10.912 1.51971 10.5904 1.20999 10.3097 1.20999C9.6111 1.20999 7.34823 1.48013 6.1137 1.71097C5.06665 1.90672 4.63542 1.94166 4.52725 1.83958C3.46788 0.83952 2.80103 0.599544 1.93944 0.908104ZM12.6117 1.29192C12.2426 1.60947 12.4835 2.25399 12.9715 2.25399C13.2375 2.25399 13.4379 2.15452 13.5157 1.98386C13.7822 1.39893 13.097 0.87461 12.6117 1.29192ZM12.7009 7.05784C12.1238 7.35205 11.6446 7.92567 11.4061 8.6076L11.265 9.01099L10.842 8.99533C10.1801 8.97068 9.81903 9.07929 9.62879 9.35986L9.47204 9.59099L8.61147 9.62275C7.27486 9.67219 6.6979 10.0767 6.50925 11.097C6.42356 11.5605 6.42095 23.093 6.50636 23.5552C6.61525 24.1444 6.95049 24.5912 7.50613 24.8882L7.75104 25.019L12.8781 25.0354C17.4349 25.0499 18.036 25.0413 18.2824 24.9595C18.8538 24.7697 19.2993 24.3114 19.4644 23.7436C19.5932 23.3003 19.5994 11.3685 19.471 10.9454C19.1779 9.97988 18.5856 9.61999 17.2893 9.61999H16.5534L16.401 9.38973C16.214 9.10698 15.8158 8.96981 15.2193 8.98243C15.0035 8.98707 14.7973 8.98881 14.7611 8.98634C14.7247 8.98402 14.6765 8.88412 14.6542 8.76449C14.4656 7.75906 13.3086 6.74812 12.7009 7.05784ZM13.229 8.45579C13.6554 9.05449 13.6791 9.42062 13.3129 9.75383C12.9855 10.0518 13.0118 10.0522 12.6805 9.74165C12.3748 9.45513 12.3599 9.29476 12.5908 8.77276C12.8054 8.28744 13.0298 8.17594 13.229 8.45579ZM11.289 10.2638C11.8192 10.3992 12.3051 10.9308 12.3921 11.4702L12.4332 11.7255L12.0977 11.6861C11.3399 11.5971 10.622 10.9544 10.622 10.3653C10.622 10.1171 10.6802 10.1082 11.289 10.2638ZM15.3646 10.3744C15.4047 10.9011 14.6813 11.5982 14.0075 11.6825C13.0395 11.8034 13.9151 10.4062 14.9355 10.2016C15.2996 10.1285 15.3472 10.1476 15.3646 10.3744ZM9.6082 11.0555C9.99955 12.0928 10.9992 12.801 12.188 12.8829L12.391 12.897L12.4079 13.4045C12.4253 13.9329 12.409 13.9674 12.2088 13.8272C11.721 13.4855 10.3768 13.3218 9.9301 13.5496C9.25425 13.8942 9.3282 15.488 10.0574 16.29C10.8062 17.1136 11.4716 17.3308 13.174 17.3072C14.8708 17.2835 15.735 16.858 16.2769 15.779C16.5479 15.2396 16.6211 14.2627 16.4222 13.8422C16.1871 13.3459 14.8427 13.3088 13.9088 13.7728C13.7546 13.8494 13.6176 13.912 13.6043 13.912C13.5909 13.912 13.58 13.6771 13.58 13.39V12.868H13.8721C14.8256 12.868 16.0128 12.0631 16.3366 11.197C16.496 10.7709 16.4758 10.78 17.2572 10.78C18.5137 10.78 18.394 10.0898 18.394 17.3379C18.394 23.9286 18.4113 23.6121 18.0411 23.8036C17.7392 23.9596 13.58 23.9261 13.58 23.7675C13.58 23.1955 12.5878 23.1697 12.4451 23.7381L12.4074 23.888H10.2639C8.03437 23.888 7.96636 23.8812 7.76684 23.6347C7.61793 23.4508 7.60865 11.233 7.75727 11.0207C7.89836 10.8193 8.03741 10.7877 8.80171 10.7836L9.50423 10.78L9.6082 11.0555ZM11.5086 14.7824C12.0388 15.017 12.7131 16.0932 12.3475 16.1216C11.519 16.1859 10.6289 15.4826 10.6233 14.7595L10.622 14.592L10.9326 14.6286C11.1033 14.6486 11.3626 14.7179 11.5086 14.7824ZM15.378 14.7826C15.378 15.4155 14.5833 16.116 13.8653 16.116C13.4811 16.116 13.4961 15.7982 13.9056 15.2614C14.32 14.7179 15.378 14.374 15.378 14.7826ZM11.956 18.6386C10.6667 18.8898 9.15652 19.8354 9.07503 20.4422C9.00079 20.9958 9.64604 21.2867 10.071 20.8911C11.6818 19.3923 13.9573 19.3015 15.668 20.6678C16.294 21.1678 16.4265 21.2029 16.7132 20.9445C17.1315 20.5674 16.9944 20.2091 16.2032 19.613C15.0039 18.7092 13.4372 18.3497 11.956 18.6386ZM12.1186 21.0444C11.0788 21.3712 10.4933 22.0803 10.8819 22.5421C11.1395 22.8482 11.4636 22.8354 11.84 22.5045C12.4795 21.9422 13.5033 21.9521 14.1771 22.5267C14.5537 22.8481 15.034 22.8172 15.1961 22.4615C15.6145 21.5428 13.5531 20.5936 12.1186 21.0444Z" fill="url(#paint0_linear_415:501)" stroke="url(#paint1_linear_415:501)" stroke-width="0.372477"/>
<path d="M32.3681 16.0737C32.3681 15.3003 32.5354 14.6124 32.87 14.0101C33.2047 13.4003 33.6694 12.9281 34.2643 12.5935C34.8667 12.2514 35.5471 12.0804 36.3056 12.0804C37.2351 12.0804 38.0308 12.3258 38.6926 12.8166C39.3545 13.3074 39.7969 13.9766 40.02 14.8244H37.923C37.7668 14.4972 37.5437 14.2481 37.2537 14.077C36.9711 13.906 36.6477 13.8205 36.2833 13.8205C35.6958 13.8205 35.2199 14.025 34.8555 14.434C34.4911 14.843 34.309 15.3895 34.309 16.0737C34.309 16.7578 34.4911 17.3044 34.8555 17.7134C35.2199 18.1223 35.6958 18.3268 36.2833 18.3268C36.6477 18.3268 36.9711 18.2413 37.2537 18.0703C37.5437 17.8993 37.7668 17.6501 37.923 17.3229H40.02C39.7969 18.1707 39.3545 18.8399 38.6926 19.3307C38.0308 19.8141 37.2351 20.0558 36.3056 20.0558C35.5471 20.0558 34.8667 19.8885 34.2643 19.5538C33.6694 19.2118 33.2047 18.7396 32.87 18.1372C32.5354 17.5349 32.3681 16.847 32.3681 16.0737ZM45.4889 20.0781C44.7527 20.0781 44.076 19.907 43.4588 19.565C42.849 19.2229 42.3619 18.747 41.9976 18.1372C41.6406 17.52 41.4622 16.8284 41.4622 16.0625C41.4622 15.2966 41.6406 14.6087 41.9976 13.9989C42.3619 13.3892 42.849 12.9132 43.4588 12.5712C44.076 12.2291 44.7527 12.0581 45.4889 12.0581C46.2251 12.0581 46.8981 12.2291 47.5078 12.5712C48.125 12.9132 48.6084 13.3892 48.9579 13.9989C49.3148 14.6087 49.4933 15.2966 49.4933 16.0625C49.4933 16.8284 49.3148 17.52 48.9579 18.1372C48.601 18.747 48.1176 19.2229 47.5078 19.565C46.8981 19.907 46.2251 20.0781 45.4889 20.0781ZM45.4889 18.338C46.1135 18.338 46.6118 18.1298 46.9836 17.7134C47.3628 17.2969 47.5525 16.7466 47.5525 16.0625C47.5525 15.3709 47.3628 14.8206 46.9836 14.4117C46.6118 13.9952 46.1135 13.787 45.4889 13.787C44.8568 13.787 44.3511 13.9915 43.9719 14.4005C43.6001 14.8095 43.4142 15.3635 43.4142 16.0625C43.4142 16.7541 43.6001 17.3081 43.9719 17.7245C44.3511 18.1335 44.8568 18.338 45.4889 18.338ZM60.0198 12.1696V20H58.1124V15.304L56.3611 20H54.8218L53.0594 15.2928V20H51.152V12.1696H53.4052L55.6026 17.5907L57.7777 12.1696H60.0198ZM67.9565 14.6905C67.9565 15.1441 67.8524 15.5606 67.6442 15.9398C67.436 16.3116 67.1162 16.6128 66.6849 16.8433C66.2536 17.0738 65.7182 17.1891 65.0787 17.1891H63.8964V20H61.989V12.1696H65.0787C65.7034 12.1696 66.2313 12.2774 66.6626 12.4931C67.0939 12.7087 67.4174 13.0062 67.6331 13.3854C67.8487 13.7647 67.9565 14.1997 67.9565 14.6905ZM64.9337 15.6721C65.2981 15.6721 65.5695 15.5866 65.748 15.4155C65.9264 15.2445 66.0157 15.0028 66.0157 14.6905C66.0157 14.3782 65.9264 14.1365 65.748 13.9655C65.5695 13.7944 65.2981 13.7089 64.9337 13.7089H63.8964V15.6721H64.9337ZM73.2504 20.0781C72.5142 20.0781 71.8375 19.907 71.2203 19.565C70.6105 19.2229 70.1234 18.747 69.759 18.1372C69.4021 17.52 69.2236 16.8284 69.2236 16.0625C69.2236 15.2966 69.4021 14.6087 69.759 13.9989C70.1234 13.3892 70.6105 12.9132 71.2203 12.5712C71.8375 12.2291 72.5142 12.0581 73.2504 12.0581C73.9866 12.0581 74.6595 12.2291 75.2693 12.5712C75.8865 12.9132 76.3699 13.3892 76.7194 13.9989C77.0763 14.6087 77.2548 15.2966 77.2548 16.0625C77.2548 16.8284 77.0763 17.52 76.7194 18.1372C76.3624 18.747 75.8791 19.2229 75.2693 19.565C74.6595 19.907 73.9866 20.0781 73.2504 20.0781ZM73.2504 18.338C73.875 18.338 74.3732 18.1298 74.745 17.7134C75.1243 17.2969 75.3139 16.7466 75.3139 16.0625C75.3139 15.3709 75.1243 14.8206 74.745 14.4117C74.3732 13.9952 73.875 13.787 73.2504 13.787C72.6183 13.787 72.1126 13.9915 71.7334 14.4005C71.3616 14.8095 71.1756 15.3635 71.1756 16.0625C71.1756 16.7541 71.3616 17.3081 71.7334 17.7245C72.1126 18.1335 72.6183 18.338 73.2504 18.338ZM85.9184 20H84.011L80.8209 15.1702V20H78.9135V12.1696H80.8209L84.011 17.0218V12.1696H85.9184V20ZM89.806 13.6978V15.2817H92.3604V16.7541H89.806V18.4718H92.695V20H87.8986V12.1696H92.695V13.6978H89.806ZM101.536 20H99.6284L96.4383 15.1702V20H94.5309V12.1696H96.4383L99.6284 17.0218V12.1696H101.536V20ZM109.149 12.1696V13.6978H107.074V20H105.167V13.6978H103.092V12.1696H109.149Z" fill="url(#paint2_linear_415:501)"/>
<defs>
<linearGradient id="paint0_linear_415:501" x1="25.4583" y1="15.9941" x2="0.539307" y2="15.9941" gradientUnits="userSpaceOnUse">
<stop stop-color="#FA5F43"/>
<stop offset="1" stop-color="#D63E3E"/>
</linearGradient>
<linearGradient id="paint1_linear_415:501" x1="25.4583" y1="15.9941" x2="0.539307" y2="15.9941" gradientUnits="userSpaceOnUse">
<stop stop-color="#FA5F43"/>
<stop offset="1" stop-color="#D63E3E"/>
</linearGradient>
<linearGradient id="paint2_linear_415:501" x1="110.2" y1="16.5" x2="32" y2="16.5" gradientUnits="userSpaceOnUse">
<stop stop-color="#FA5F43"/>
<stop offset="1" stop-color="#D63E3E"/>
</linearGradient>
</defs>
</svg>
