<svg width="161" height="153" viewBox="0 0 161 153" fill="none" xmlns="http://www.w3.org/2000/svg">
<path fill-rule="evenodd" clip-rule="evenodd" d="M42.828 0.959016C37.5465 2.85102 36.3725 8.79901 40.431 13.1C42.255 15.0325 42.278 15.1105 41.7675 17.619C41.534 18.7635 41.264 20.15 41.167 20.7C40.6475 23.648 40.1555 26.766 39.873 28.9C39.699 30.22 39.474 31.885 39.374 32.6C38.3405 39.971 37.9415 52.784 38.459 62C38.9175 70.164 39.3875 74.546 40.5825 81.8C40.809 83.175 41.073 84.795 41.1685 85.4C41.264 86.005 41.531 87.355 41.7615 88.4C42.2855 90.7785 42.26 90.872 40.563 92.7335C38.538 94.955 38.075 96.013 38.0845 98.4C38.11 104.832 45.267 107.699 50.224 103.263C52.325 101.382 52.2955 101.39 55.368 101.976C70.6465 104.892 89.0965 105.035 104.368 102.357C108.981 101.548 109.083 101.535 109.684 101.686C109.968 101.758 110.808 102.387 111.551 103.084C116.584 107.811 123.822 104.998 123.858 98.3C123.87 95.903 123.478 95.0155 121.428 92.801C119.737 90.9745 119.681 90.783 120.174 88.539C120.396 87.5275 120.667 86.115 120.776 85.4C120.885 84.685 121.109 83.38 121.273 82.5C121.566 80.9305 121.703 80.022 122.284 75.8C123.905 64.021 124.169 48.54 122.959 36.2C122.414 30.648 120.966 20.84 120.36 18.6C120.256 18.215 120.113 17.2105 120.042 16.3685L119.914 14.8365L121.353 13.316C126.349 8.03752 123.674 0.680517 116.768 0.707517C114.451 0.716517 113.615 1.08501 111.392 3.07851C109.647 4.64301 109.627 4.64601 105.799 3.92001C95.054 1.88151 89.0835 1.61001 88.3915 3.12801C87.5055 5.07301 88.6035 5.89452 92.479 6.18652C94.013 6.30202 95.943 6.48451 96.768 6.59201C101.17 7.16452 102.863 7.41802 104.768 7.78902C110.168 8.84102 111.39 8.58902 114.332 5.81602C116.733 3.55352 119.971 4.67852 119.968 7.77452C119.967 8.66102 119.455 9.53201 118.145 10.877C115.824 13.259 115.517 14.82 116.457 19.477C119.804 36.0595 120.612 56.524 118.576 73.1C117.978 77.965 117.162 83.0985 116.382 86.9C115.499 91.2035 115.837 92.6985 118.296 95.376C120.435 97.704 120.581 99.5095 118.738 100.822C117.256 101.877 115.87 101.606 113.95 99.8835C111.241 97.4545 109.92 97.2235 104.568 98.244C95.227 100.025 82.915 100.7 72.068 100.026C66.8255 99.6995 61.5715 99.06 57.468 98.2485C52.276 97.222 50.492 97.511 48.128 99.7635C45.785 101.996 43.493 102.005 42.362 99.788C41.589 98.273 41.854 97.3435 43.619 95.3795C46.1875 92.521 46.4425 91.289 45.4805 86.3855C44.735 82.5875 44.0825 78.6535 43.7745 76.1C43.668 75.22 43.483 73.78 43.3625 72.9C41.2665 57.561 42.1175 36.875 45.575 19.1C46.412 14.797 46.0975 13.282 43.8945 11.004C41.4555 8.48252 41.3355 6.27901 43.569 5.02351C45.107 4.15901 46.196 4.46402 48.177 6.31451C50.3745 8.36701 52.604 8.80302 56.568 7.95602C59.5135 7.32652 61.9325 6.94852 65.368 6.58002C67.7235 6.32752 71.3725 6.00702 71.938 6.00352C72.6555 5.99852 73.768 4.78052 73.768 4.00002C73.768 3.06802 72.659 2.00002 71.691 2.00002C69.282 2.00002 61.479 2.93152 57.222 3.72752C53.6115 4.40252 52.1245 4.52302 51.7515 4.17102C48.0985 0.722517 45.799 -0.104984 42.828 0.959016ZM79.629 2.28252C78.356 3.37752 79.187 5.60001 80.8695 5.60001C81.787 5.60001 82.478 5.25701 82.746 4.66851C83.665 2.65152 81.3025 0.843517 79.629 2.28252ZM79.9365 22.165C77.9465 23.1795 76.294 25.1575 75.4715 27.509L74.985 28.9L73.5265 28.846C71.244 28.761 69.999 29.1355 69.343 30.103L68.8025 30.9L65.835 31.0095C61.226 31.18 59.2365 32.575 58.586 36.093C58.2905 37.6915 58.2815 77.4585 58.576 79.0525C58.9515 81.084 60.1075 82.625 62.0235 83.649L62.868 84.1L80.5475 84.1565C96.2605 84.2065 98.3335 84.177 99.183 83.895C101.154 83.2405 102.69 81.66 103.259 79.702C103.703 78.1735 103.725 37.0295 103.282 35.5705C102.271 32.241 100.229 31 95.7585 31H93.221L92.6955 30.206C92.0505 29.231 90.6775 28.758 88.6205 28.8015C87.8765 28.8175 87.1655 28.8235 87.0405 28.815C86.915 28.807 86.749 28.4625 86.672 28.05C86.0215 24.583 82.032 21.097 79.9365 22.165ZM81.7575 26.9855C83.228 29.05 83.3095 30.3125 82.047 31.4615C80.918 32.489 81.0085 32.4905 79.866 31.4195C78.812 30.4315 78.7605 29.8785 79.557 28.0785C80.297 26.405 81.0705 26.0205 81.7575 26.9855ZM75.068 33.22C76.896 33.687 78.5715 35.52 78.8715 37.38L79.0135 38.2605L77.8565 38.1245C75.2435 37.8175 72.768 35.6015 72.768 33.57C72.768 32.714 72.9685 32.6835 75.068 33.22ZM89.1215 33.6015C89.26 35.4175 86.7655 37.8215 84.442 38.112C81.104 38.529 84.1235 33.711 87.642 33.0055C88.8975 32.7535 89.0615 32.8195 89.1215 33.6015ZM69.272 35.95C70.6215 39.527 74.0685 41.969 78.168 42.2515L78.868 42.3L78.926 44.05C78.986 45.872 78.93 45.991 78.2395 45.5075C76.5575 44.3295 71.9225 43.765 70.382 44.5505C68.0515 45.7385 68.3065 51.2345 70.821 54C73.403 56.84 75.6975 57.589 81.568 57.5075C87.419 57.426 90.399 55.9585 92.2675 52.238C93.202 50.378 93.4545 47.0095 92.7685 45.5595C91.958 43.848 87.322 43.72 84.1015 45.32C83.57 45.584 83.0975 45.8 83.0515 45.8C83.0055 45.8 82.968 44.99 82.968 44V42.2H83.975C87.263 42.2 91.357 39.4245 92.4735 36.438C93.023 34.9685 92.9535 35 95.648 35C99.9805 35 99.568 32.62 99.568 57.6135C99.568 80.34 99.6275 79.2485 98.351 79.909C97.31 80.447 82.968 80.3315 82.968 79.7845C82.968 77.812 79.5465 77.723 79.0545 79.683L78.9245 80.2H71.533C63.845 80.2 63.6105 80.1765 62.9225 79.3265C62.409 78.6925 62.377 36.562 62.8895 35.83C63.376 35.1355 63.8555 35.0265 66.491 35.0125L68.9135 35L69.272 35.95ZM75.825 48.8015C77.6535 49.6105 79.9785 53.3215 78.718 53.4195C75.861 53.641 72.7915 51.216 72.7725 48.7225L72.768 48.145L73.839 48.271C74.4275 48.34 75.3215 48.579 75.825 48.8015ZM89.168 48.802C89.168 50.9845 86.4275 53.4 83.9515 53.4C82.627 53.4 82.6785 52.304 84.0905 50.453C85.5195 48.579 89.168 47.393 89.168 48.802ZM77.368 62.0985C72.922 62.965 67.7145 66.2255 67.4335 68.318C67.1775 70.227 69.4025 71.23 70.868 69.866C76.4225 64.6975 84.269 64.3845 90.168 69.096C92.3265 70.82 92.7835 70.941 93.772 70.05C95.2145 68.7495 94.7415 67.514 92.0135 65.4585C87.878 62.342 82.4755 61.1025 77.368 62.0985ZM77.9285 70.3945C74.343 71.5215 72.324 73.9665 73.664 75.559C74.5525 76.6145 75.67 76.5705 76.968 75.4295C79.173 73.4905 82.7035 73.5245 85.027 75.506C86.3255 76.614 87.9815 76.5075 88.5405 75.281C89.9835 72.113 82.875 68.84 77.9285 70.3945Z" fill="url(#paint0_linear_415:500)" stroke="url(#paint1_linear_415:500)" stroke-width="0.616514"/>
<path d="M1.04235 134.552C1.04235 132.888 1.40235 131.408 2.12235 130.112C2.84235 128.8 3.84235 127.784 5.12235 127.064C6.41835 126.328 7.88235 125.96 9.51435 125.96C11.5144 125.96 13.2264 126.488 14.6504 127.544C16.0744 128.6 17.0264 130.04 17.5064 131.864H12.9944C12.6584 131.16 12.1784 130.624 11.5544 130.256C10.9464 129.888 10.2504 129.704 9.46635 129.704C8.20235 129.704 7.17835 130.144 6.39435 131.024C5.61035 131.904 5.21835 133.08 5.21835 134.552C5.21835 136.024 5.61035 137.2 6.39435 138.08C7.17835 138.96 8.20235 139.4 9.46635 139.4C10.2504 139.4 10.9464 139.216 11.5544 138.848C12.1784 138.48 12.6584 137.944 12.9944 137.24H17.5064C17.0264 139.064 16.0744 140.504 14.6504 141.56C13.2264 142.6 11.5144 143.12 9.51435 143.12C7.88235 143.12 6.41835 142.76 5.12235 142.04C3.84235 141.304 2.84235 140.288 2.12235 138.992C1.40235 137.696 1.04235 136.216 1.04235 134.552ZM28.5149 143.168C26.9309 143.168 25.4749 142.8 24.1469 142.064C22.8349 141.328 21.7869 140.304 21.0029 138.992C20.2349 137.664 19.8509 136.176 19.8509 134.528C19.8509 132.88 20.2349 131.4 21.0029 130.088C21.7869 128.776 22.8349 127.752 24.1469 127.016C25.4749 126.28 26.9309 125.912 28.5149 125.912C30.0989 125.912 31.5469 126.28 32.8589 127.016C34.1869 127.752 35.2269 128.776 35.9789 130.088C36.7469 131.4 37.1309 132.88 37.1309 134.528C37.1309 136.176 36.7469 137.664 35.9789 138.992C35.2109 140.304 34.1709 141.328 32.8589 142.064C31.5469 142.8 30.0989 143.168 28.5149 143.168ZM28.5149 139.424C29.8589 139.424 30.9309 138.976 31.7309 138.08C32.5469 137.184 32.9549 136 32.9549 134.528C32.9549 133.04 32.5469 131.856 31.7309 130.976C30.9309 130.08 29.8589 129.632 28.5149 129.632C27.1549 129.632 26.0669 130.072 25.2509 130.952C24.4509 131.832 24.0509 133.024 24.0509 134.528C24.0509 136.016 24.4509 137.208 25.2509 138.104C26.0669 138.984 27.1549 139.424 28.5149 139.424ZM59.0213 126.152V143H54.9173V132.896L51.1493 143H47.8373L44.0453 132.872V143H39.9413V126.152H44.7893L49.5173 137.816L54.1973 126.152H59.0213ZM75.3398 131.576C75.3398 132.552 75.1158 133.448 74.6678 134.264C74.2198 135.064 73.5318 135.712 72.6038 136.208C71.6758 136.704 70.5238 136.952 69.1478 136.952H66.6038V143H62.4998V126.152H69.1478C70.4918 126.152 71.6278 126.384 72.5558 126.848C73.4838 127.312 74.1798 127.952 74.6438 128.768C75.1078 129.584 75.3398 130.52 75.3398 131.576ZM68.8358 133.688C69.6198 133.688 70.2038 133.504 70.5878 133.136C70.9718 132.768 71.1638 132.248 71.1638 131.576C71.1638 130.904 70.9718 130.384 70.5878 130.016C70.2038 129.648 69.6198 129.464 68.8358 129.464H66.6038V133.688H68.8358ZM85.9716 143.168C84.3876 143.168 82.9316 142.8 81.6036 142.064C80.2916 141.328 79.2436 140.304 78.4596 138.992C77.6916 137.664 77.3076 136.176 77.3076 134.528C77.3076 132.88 77.6916 131.4 78.4596 130.088C79.2436 128.776 80.2916 127.752 81.6036 127.016C82.9316 126.28 84.3876 125.912 85.9716 125.912C87.5556 125.912 89.0036 126.28 90.3156 127.016C91.6436 127.752 92.6836 128.776 93.4356 130.088C94.2036 131.4 94.5876 132.88 94.5876 134.528C94.5876 136.176 94.2036 137.664 93.4356 138.992C92.6676 140.304 91.6276 141.328 90.3156 142.064C89.0036 142.8 87.5556 143.168 85.9716 143.168ZM85.9716 139.424C87.3156 139.424 88.3876 138.976 89.1876 138.08C90.0036 137.184 90.4116 136 90.4116 134.528C90.4116 133.04 90.0036 131.856 89.1876 130.976C88.3876 130.08 87.3156 129.632 85.9716 129.632C84.6116 129.632 83.5236 130.072 82.7076 130.952C81.9076 131.832 81.5076 133.024 81.5076 134.528C81.5076 136.016 81.9076 137.208 82.7076 138.104C83.5236 138.984 84.6116 139.424 85.9716 139.424ZM112.47 143H108.366L101.502 132.608V143H97.3981V126.152H101.502L108.366 136.592V126.152H112.47V143ZM120.076 129.44V132.848H125.572V136.016H120.076V139.712H126.292V143H115.972V126.152H126.292V129.44H120.076ZM144.556 143H140.452L133.588 132.608V143H129.484V126.152H133.588L140.452 136.592V126.152H144.556V143ZM160.178 126.152V129.44H155.714V143H151.61V129.44H147.146V126.152H160.178Z" fill="url(#paint2_linear_415:500)"/>
<defs>
<linearGradient id="paint0_linear_415:500" x1="123.928" y1="52.9796" x2="38" y2="52.9796" gradientUnits="userSpaceOnUse">
<stop stop-color="#FA5F43"/>
<stop offset="1" stop-color="#D63E3E"/>
</linearGradient>
<linearGradient id="paint1_linear_415:500" x1="123.928" y1="52.9796" x2="38" y2="52.9796" gradientUnits="userSpaceOnUse">
<stop stop-color="#FA5F43"/>
<stop offset="1" stop-color="#D63E3E"/>
</linearGradient>
<linearGradient id="paint2_linear_415:500" x1="161" y1="135" x2="0" y2="135" gradientUnits="userSpaceOnUse">
<stop stop-color="#FA5F43"/>
<stop offset="1" stop-color="#D63E3E"/>
</linearGradient>
</defs>
</svg>
