<svg width="25" height="25" viewBox="0 0 25 25" fill="none" xmlns="http://www.w3.org/2000/svg">
<path d="M5.11364 7.95455H5.68182V8.52273C5.68182 8.82411 5.80154 9.11315 6.01465 9.32626C6.22776 9.53937 6.5168 9.65909 6.81818 9.65909C7.11956 9.65909 7.4086 9.53937 7.62171 9.32626C7.83482 9.11315 7.95455 8.82411 7.95455 8.52273V7.95455H8.52273C8.82411 7.95455 9.11315 7.83482 9.32626 7.62171C9.53937 7.4086 9.65909 7.11956 9.65909 6.81818C9.65909 6.5168 9.53937 6.22776 9.32626 6.01465C9.11315 5.80154 8.82411 5.68182 8.52273 5.68182H7.95455V5.11364C7.95455 4.81225 7.83482 4.52322 7.62171 4.31011C7.4086 4.097 7.11956 3.97727 6.81818 3.97727C6.5168 3.97727 6.22776 4.097 6.01465 4.31011C5.80154 4.52322 5.68182 4.81225 5.68182 5.11364V5.68182H5.11364C4.81225 5.68182 4.52322 5.80154 4.31011 6.01465C4.097 6.22776 3.97727 6.5168 3.97727 6.81818C3.97727 7.11956 4.097 7.4086 4.31011 7.62171C4.52322 7.83482 4.81225 7.95455 5.11364 7.95455ZM4.40909 20.5909C4.622 20.8026 4.91002 20.9214 5.21023 20.9214C5.51044 20.9214 5.79845 20.8026 6.01136 20.5909L6.81818 19.7841L7.625 20.5909C7.83791 20.8026 8.12593 20.9214 8.42614 20.9214C8.72635 20.9214 9.01436 20.8026 9.22727 20.5909C9.43892 20.378 9.55772 20.09 9.55772 19.7898C9.55772 19.4896 9.43892 19.2015 9.22727 18.9886L8.42045 18.1818L9.22727 17.375C9.41344 17.1576 9.51072 16.878 9.49967 16.592C9.48863 16.306 9.37007 16.0347 9.16769 15.8323C8.96531 15.6299 8.69401 15.5114 8.40802 15.5003C8.12202 15.4893 7.84239 15.5866 7.625 15.7727L6.81818 16.5795L6.01136 15.7727C5.79398 15.5866 5.51434 15.4893 5.22835 15.5003C4.94235 15.5114 4.67106 15.6299 4.46868 15.8323C4.2663 16.0347 4.14774 16.306 4.13669 16.592C4.12565 16.878 4.22292 17.1576 4.40909 17.375L5.21591 18.1818L4.40909 18.9886C4.19744 19.2015 4.07864 19.4896 4.07864 19.7898C4.07864 20.09 4.19744 20.378 4.40909 20.5909ZM21.5909 0H3.40909C2.50494 0 1.63783 0.359171 0.9985 0.9985C0.359171 1.63783 0 2.50494 0 3.40909V21.5909C0 22.4951 0.359171 23.3622 0.9985 24.0015C1.63783 24.6408 2.50494 25 3.40909 25H21.5909C22.4951 25 23.3622 24.6408 24.0015 24.0015C24.6408 23.3622 25 22.4951 25 21.5909V3.40909C25 2.50494 24.6408 1.63783 24.0015 0.9985C23.3622 0.359171 22.4951 0 21.5909 0ZM11.3636 22.7273H3.40909C3.10771 22.7273 2.81867 22.6075 2.60556 22.3944C2.39245 22.1813 2.27273 21.8923 2.27273 21.5909V13.6364H11.3636V22.7273ZM11.3636 11.3636H2.27273V3.40909C2.27273 3.10771 2.39245 2.81867 2.60556 2.60556C2.81867 2.39245 3.10771 2.27273 3.40909 2.27273H11.3636V11.3636ZM22.7273 21.5909C22.7273 21.8923 22.6075 22.1813 22.3944 22.3944C22.1813 22.6075 21.8923 22.7273 21.5909 22.7273H13.6364V13.6364H22.7273V21.5909ZM22.7273 11.3636H13.6364V2.27273H21.5909C21.8923 2.27273 22.1813 2.39245 22.3944 2.60556C22.6075 2.81867 22.7273 3.10771 22.7273 3.40909V11.3636ZM16.4773 17.6136H19.8864C20.1877 17.6136 20.4768 17.4939 20.6899 17.2808C20.903 17.0677 21.0227 16.7787 21.0227 16.4773C21.0227 16.1759 20.903 15.8869 20.6899 15.6737C20.4768 15.4606 20.1877 15.3409 19.8864 15.3409H16.4773C16.1759 15.3409 15.8869 15.4606 15.6737 15.6737C15.4606 15.8869 15.3409 16.1759 15.3409 16.4773C15.3409 16.7787 15.4606 17.0677 15.6737 17.2808C15.8869 17.4939 16.1759 17.6136 16.4773 17.6136ZM19.8864 5.68182H16.4773C16.1759 5.68182 15.8869 5.80154 15.6737 6.01465C15.4606 6.22776 15.3409 6.5168 15.3409 6.81818C15.3409 7.11956 15.4606 7.4086 15.6737 7.62171C15.8869 7.83482 16.1759 7.95455 16.4773 7.95455H19.8864C20.1877 7.95455 20.4768 7.83482 20.6899 7.62171C20.903 7.4086 21.0227 7.11956 21.0227 6.81818C21.0227 6.5168 20.903 6.22776 20.6899 6.01465C20.4768 5.80154 20.1877 5.68182 19.8864 5.68182ZM16.4773 21.0227H19.8864C20.1877 21.0227 20.4768 20.903 20.6899 20.6899C20.903 20.4768 21.0227 20.1877 21.0227 19.8864C21.0227 19.585 20.903 19.2959 20.6899 19.0828C20.4768 18.8697 20.1877 18.75 19.8864 18.75H16.4773C16.1759 18.75 15.8869 18.8697 15.6737 19.0828C15.4606 19.2959 15.3409 19.585 15.3409 19.8864C15.3409 20.1877 15.4606 20.4768 15.6737 20.6899C15.8869 20.903 16.1759 21.0227 16.4773 21.0227Z" fill="#FA5F43"/>
</svg>
