<svg width="19" height="20" viewBox="0 0 19 20" fill="none" xmlns="http://www.w3.org/2000/svg">
<path d="M6.85415 16.7917C6.54511 16.7917 6.24302 16.8833 5.98607 17.055C5.72912 17.2267 5.52885 17.4707 5.41058 17.7562C5.29232 18.0417 5.26138 18.3559 5.32167 18.659C5.38196 18.9621 5.53077 19.2405 5.74929 19.459C5.96781 19.6775 6.24622 19.8264 6.54932 19.8866C6.85241 19.9469 7.16658 19.916 7.45209 19.7977C7.7376 19.6795 7.98163 19.4792 8.15332 19.2222C8.32501 18.9653 8.41665 18.6632 8.41665 18.3542C8.41665 17.9398 8.25203 17.5423 7.959 17.2493C7.66597 16.9563 7.26855 16.7917 6.85415 16.7917ZM17.7916 13.6667H5.29165C5.01538 13.6667 4.75043 13.5569 4.55508 13.3616C4.35973 13.1662 4.24998 12.9013 4.24998 12.625C4.24998 12.3487 4.35973 12.0838 4.55508 11.8884C4.75043 11.6931 5.01538 11.5833 5.29165 11.5833H14.1367C14.8152 11.5811 15.4748 11.3591 16.0166 10.9505C16.5583 10.5419 16.9531 9.96873 17.1416 9.3169L18.7931 3.53635C18.8374 3.38132 18.8452 3.21813 18.8157 3.05961C18.7862 2.90109 18.7203 2.75158 18.6232 2.62285C18.5262 2.49411 18.4005 2.38967 18.2562 2.31774C18.1119 2.24581 17.9529 2.20836 17.7916 2.20833H5.01984C4.8042 1.60142 4.40669 1.07574 3.88146 0.702931C3.35624 0.330123 2.72884 0.128313 2.08476 0.125H1.12498C0.848712 0.125 0.58376 0.234747 0.38841 0.430097C0.19306 0.625447 0.083313 0.8904 0.083313 1.16667C0.083313 1.44293 0.19306 1.70789 0.38841 1.90324C0.58376 2.09859 0.848712 2.20833 1.12498 2.20833H2.08476C2.31089 2.20912 2.53068 2.28314 2.71121 2.4193C2.89175 2.55546 3.02333 2.74644 3.08624 2.96365L3.24824 3.53108L3.24849 3.53635L4.95748 9.5178C4.16223 9.60335 3.43005 9.99057 2.91171 10.5997C2.39337 11.2089 2.12833 11.9936 2.17115 12.7923C2.21398 13.591 2.56141 14.3428 3.14192 14.893C3.72243 15.4433 4.49181 15.75 5.29165 15.75H17.7916C18.0679 15.75 18.3329 15.6403 18.5282 15.4449C18.7236 15.2496 18.8333 14.9846 18.8333 14.7083C18.8333 14.4321 18.7236 14.1671 18.5282 13.9718C18.3329 13.7764 18.0679 13.6667 17.7916 13.6667ZM16.4107 4.29167L15.1386 8.74418C15.0758 8.96156 14.9442 9.15271 14.7635 9.28898C14.5829 9.42525 14.3629 9.49929 14.1367 9.5H7.11913L6.85357 8.57061L5.63167 4.29167H16.4107ZM15.1875 16.7917C14.8784 16.7917 14.5764 16.8833 14.3194 17.055C14.0624 17.2267 13.8622 17.4707 13.7439 17.7562C13.6257 18.0417 13.5947 18.3559 13.655 18.659C13.7153 18.9621 13.8641 19.2405 14.0826 19.459C14.3011 19.6775 14.5796 19.8264 14.8826 19.8866C15.1857 19.9469 15.4999 19.916 15.7854 19.7977C16.0709 19.6795 16.315 19.4792 16.4866 19.2222C16.6583 18.9653 16.75 18.6632 16.75 18.3542C16.75 17.9398 16.5854 17.5423 16.2923 17.2493C15.9993 16.9563 15.6019 16.7917 15.1875 16.7917Z" fill="#000"/>
</svg>
