<svg width="25" height="25" viewBox="0 0 25 25" fill="none" xmlns="http://www.w3.org/2000/svg">
<path d="M24.9912 7.27717C24.9972 7.19813 24.9972 7.11875 24.9912 7.0397L22.4921 0.79047C22.3945 0.543445 22.2207 0.333947 21.9961 0.192363C21.7714 0.0507795 21.5074 -0.0155255 21.2425 0.00306637H3.74868C3.49842 0.00282405 3.25385 0.0777506 3.04666 0.218141C2.83946 0.358531 2.67919 0.557917 2.58659 0.79047L0.0874692 7.0397C0.0814459 7.11875 0.0814459 7.19813 0.0874692 7.27717C0.0459473 7.34675 0.0163812 7.42279 0 7.50215C0.0139083 8.36609 0.251444 9.21168 0.689439 9.95644C1.12743 10.7012 1.75093 11.3197 2.49912 11.7516V23.7502C2.49912 24.0816 2.63077 24.3995 2.86511 24.6339C3.09945 24.8683 3.41728 25 3.74868 25H21.2425C21.5739 25 21.8918 24.8683 22.1261 24.6339C22.3605 24.3995 22.4921 24.0816 22.4921 23.7502V11.8016C23.2475 11.3654 23.8757 10.739 24.3141 9.98477C24.7525 9.2305 24.986 8.37461 24.9912 7.50215C25.0029 7.42761 25.0029 7.35171 24.9912 7.27717ZM13.7452 22.5003H11.246V17.5009H13.7452V22.5003ZM19.993 22.5003H16.2443V16.2511C16.2443 15.9196 16.1126 15.6017 15.8783 15.3673C15.644 15.1329 15.3261 15.0012 14.9947 15.0012H9.99649C9.66508 15.0012 9.34725 15.1329 9.11292 15.3673C8.87858 15.6017 8.74693 15.9196 8.74693 16.2511V22.5003H4.99824V12.5015C5.70983 12.4975 6.41236 12.3416 7.05884 12.0441C7.70531 11.7467 8.28084 11.3146 8.74693 10.7767C9.21597 11.3087 9.79282 11.7348 10.4391 12.0266C11.0855 12.3184 11.7865 12.4693 12.4956 12.4693C13.2047 12.4693 13.9058 12.3184 14.5521 12.0266C15.1984 11.7348 15.7752 11.3087 16.2443 10.7767C16.7104 11.3146 17.2859 11.7467 17.9324 12.0441C18.5789 12.3416 19.2814 12.4975 19.993 12.5015V22.5003ZM19.993 10.0018C19.3302 10.0018 18.6945 9.73848 18.2258 9.2697C17.7572 8.80091 17.4939 8.16511 17.4939 7.50215C17.4939 7.17067 17.3622 6.85276 17.1279 6.61837C16.8935 6.38398 16.5757 6.2523 16.2443 6.2523C15.9129 6.2523 15.5951 6.38398 15.3607 6.61837C15.1264 6.85276 14.9947 7.17067 14.9947 7.50215C14.9947 8.16511 14.7314 8.80091 14.2628 9.2697C13.7941 9.73848 13.1584 10.0018 12.4956 10.0018C11.8328 10.0018 11.1971 9.73848 10.7285 9.2697C10.2598 8.80091 9.99649 8.16511 9.99649 7.50215C9.99649 7.17067 9.86484 6.85276 9.6305 6.61837C9.39616 6.38398 9.07833 6.2523 8.74693 6.2523C8.41552 6.2523 8.09769 6.38398 7.86335 6.61837C7.62902 6.85276 7.49737 7.17067 7.49737 7.50215C7.50967 7.83041 7.45722 8.15789 7.343 8.46587C7.22877 8.77386 7.05502 9.05633 6.83166 9.29715C6.6083 9.53797 6.3397 9.73243 6.0412 9.86943C5.7427 10.0064 5.42015 10.0833 5.09196 10.0956C4.42915 10.1204 3.78362 9.88092 3.29737 9.42972C3.0566 9.2063 2.86218 8.93764 2.72522 8.63908C2.58826 8.34051 2.51143 8.01789 2.49912 7.68962L4.59838 2.50276H20.3928L22.4921 7.68962C22.4447 8.31957 22.1607 8.90821 21.697 9.33718C21.2334 9.76615 20.6246 10.0036 19.993 10.0018Z" fill="#000"/>
</svg>
