<svg width="21" height="21" viewBox="0 0 21 21" fill="none" xmlns="http://www.w3.org/2000/svg">
<path d="M14.3646 11.2396C15.3858 10.4361 16.1312 9.33432 16.4971 8.08747C16.863 6.84061 16.8312 5.51072 16.406 4.28281C15.9809 3.05489 15.1836 1.99002 14.1251 1.23634C13.0665 0.482652 11.7994 0.0776367 10.5 0.0776367C9.20057 0.0776367 7.93345 0.482652 6.87492 1.23634C5.8164 1.99002 5.01911 3.05489 4.59397 4.28281C4.16883 5.51072 4.13699 6.84061 4.50287 8.08747C4.86876 9.33432 5.61417 10.4361 6.63541 11.2396C4.88549 11.9407 3.35863 13.1035 2.21759 14.6041C1.07656 16.1047 0.364125 17.8868 0.156247 19.7604C0.141199 19.8972 0.153243 20.0357 0.19169 20.1678C0.230136 20.2999 0.294233 20.4232 0.380321 20.5306C0.554183 20.7474 0.807063 20.8863 1.08333 20.9167C1.3596 20.9471 1.63662 20.8665 1.85346 20.6926C2.0703 20.5188 2.20919 20.2659 2.23958 19.9896C2.46831 17.9534 3.43925 16.0727 4.96689 14.7071C6.49453 13.3415 8.47177 12.5865 10.5208 12.5865C12.5699 12.5865 14.5471 13.3415 16.0748 14.7071C17.6024 16.0727 18.5733 17.9534 18.8021 19.9896C18.8304 20.2456 18.9525 20.482 19.1449 20.6532C19.3373 20.8244 19.5862 20.9183 19.8437 20.9167H19.9583C20.2314 20.8853 20.481 20.7472 20.6527 20.5326C20.8244 20.318 20.9043 20.0442 20.875 19.7709C20.6661 17.8919 19.9499 16.1052 18.803 14.6023C17.6561 13.0994 16.1218 11.937 14.3646 11.2396ZM10.5 10.5C9.67591 10.5 8.87033 10.2557 8.18512 9.79782C7.49992 9.33998 6.96586 8.68924 6.6505 7.92788C6.33513 7.16652 6.25262 6.32874 6.41339 5.52049C6.57416 4.71223 6.971 3.9698 7.55372 3.38708C8.13644 2.80436 8.87887 2.40753 9.68712 2.24676C10.4954 2.08598 11.3332 2.1685 12.0945 2.48386C12.8559 2.79923 13.5066 3.33328 13.9645 4.01849C14.4223 4.70369 14.6667 5.50927 14.6667 6.33336C14.6667 7.43843 14.2277 8.49824 13.4463 9.27964C12.6649 10.061 11.6051 10.5 10.5 10.5Z" fill="#000"/>
</svg>
